<svg width="24" height="24" viewBox="0 0 24 24" fill="none" xmlns="http://www.w3.org/2000/svg">
<path fill-rule="evenodd" clip-rule="evenodd" d="M12 2.75C6.89137 2.75 2.75 6.89137 2.75 12C2.75 17.1086 6.89137 21.25 12 21.25C17.1086 21.25 21.25 17.1086 21.25 12C21.25 6.89137 17.1086 2.75 12 2.75ZM1.25 12C1.25 6.06294 6.06294 1.25 12 1.25C17.9371 1.25 22.75 6.06294 22.75 12C22.75 17.9371 17.9371 22.75 12 22.75C6.06294 22.75 1.25 17.9371 1.25 12Z" fill="#828282"/>
<path fill-rule="evenodd" clip-rule="evenodd" d="M11.9082 7.75C11.419 7.75 10.9691 7.95485 10.6328 8.30201C10.4488 8.49195 10.3003 8.72353 10.2015 8.98401C10.0546 9.37131 9.62155 9.5662 9.23425 9.41932C8.84696 9.27244 8.65206 8.83941 8.79894 8.45211C8.96987 8.0014 9.22883 7.59552 9.55543 7.25836C10.1541 6.64029 10.9848 6.25 11.9082 6.25C13.7903 6.25 15.2502 7.84564 15.2502 9.73065C15.2502 11.3594 14.1668 12.7632 12.6582 13.1232V14C12.6582 14.4142 12.3224 14.75 11.9082 14.75C11.494 14.75 11.1582 14.4142 11.1582 14V12.9613C11.1582 12.2422 11.7276 11.7842 12.2547 11.6764C13.0804 11.5076 13.7502 10.7233 13.7502 9.73065C13.7502 8.59947 12.8892 7.75 11.9082 7.75Z" fill="#828282"/>
<path d="M12 18.25C12.5523 18.25 13 17.8023 13 17.25C13 16.6977 12.5523 16.25 12 16.25C11.4477 16.25 11 16.6977 11 17.25C11 17.8023 11.4477 18.25 12 18.25Z" fill="#828282"/>
</svg>
