<svg width="170" height="41" viewBox="0 0 170 41" fill="none" xmlns="http://www.w3.org/2000/svg">
<path d="M63.8029 18.0742H60.5366C60.4769 17.6516 60.3551 17.2763 60.1712 16.9482C59.9872 16.6151 59.7511 16.3317 59.4627 16.098C59.1744 15.8643 58.8413 15.6854 58.4634 15.5611C58.0906 15.4368 57.6854 15.3746 57.2479 15.3746C56.4574 15.3746 55.7688 15.571 55.1822 15.9638C54.5955 16.3516 54.1406 16.9183 53.8175 17.6641C53.4943 18.4048 53.3327 19.3047 53.3327 20.3636C53.3327 21.4524 53.4943 22.3672 53.8175 23.108C54.1456 23.8487 54.603 24.408 55.1896 24.7859C55.7763 25.1637 56.4549 25.3526 57.2255 25.3526C57.658 25.3526 58.0582 25.2955 58.4261 25.1811C58.799 25.0668 59.1296 24.9002 59.418 24.6815C59.7063 24.4577 59.945 24.1868 60.1339 23.8686C60.3278 23.5504 60.462 23.1875 60.5366 22.7798L63.8029 22.7947C63.7184 23.4957 63.5071 24.1719 63.169 24.8232C62.8359 25.4695 62.386 26.0487 61.8192 26.5607C61.2575 27.0678 60.5863 27.4705 59.8058 27.7688C59.0302 28.0621 58.1527 28.2088 57.1733 28.2088C55.8111 28.2088 54.593 27.9006 53.5192 27.2841C52.4503 26.6676 51.6051 25.7752 50.9837 24.6069C50.3672 23.4386 50.0589 22.0241 50.0589 20.3636C50.0589 18.6982 50.3722 17.2812 50.9986 16.1129C51.625 14.9446 52.4751 14.0547 53.549 13.4432C54.6229 12.8267 55.831 12.5185 57.1733 12.5185C58.0582 12.5185 58.8786 12.6428 59.6342 12.8913C60.3949 13.1399 61.0685 13.5028 61.6552 13.9801C62.2418 14.4524 62.7191 15.0316 63.087 15.7177C63.4599 16.4038 63.6985 17.1893 63.8029 18.0742ZM66.0588 28V16.5455H69.1387V18.544H69.258C69.4668 17.8331 69.8173 17.2962 70.3095 16.9332C70.8017 16.5653 71.3684 16.3814 72.0098 16.3814C72.1689 16.3814 72.3404 16.3913 72.5243 16.4112C72.7083 16.4311 72.8699 16.4585 73.0091 16.4933V19.3121C72.8599 19.2674 72.6536 19.2276 72.3901 19.1928C72.1266 19.158 71.8855 19.1406 71.6667 19.1406C71.1994 19.1406 70.7818 19.2425 70.4139 19.4464C70.051 19.6452 69.7626 19.9237 69.5488 20.2816C69.34 20.6396 69.2356 21.0522 69.2356 21.5195V28H66.0588ZM76.9615 32.2955C76.5588 32.2955 76.1809 32.2631 75.8279 32.1985C75.4799 32.1388 75.1916 32.0618 74.9629 31.9673L75.6788 29.5959C76.0517 29.7102 76.3873 29.7724 76.6855 29.7823C76.9888 29.7923 77.2498 29.7227 77.4686 29.5735C77.6923 29.4244 77.8738 29.1708 78.013 28.8129L78.1994 28.3281L74.0904 16.5455H77.4313L79.8027 24.9574H79.9221L82.3159 16.5455H85.6792L81.2271 29.2379C81.0133 29.8544 80.7225 30.3913 80.3546 30.8487C79.9917 31.3111 79.5318 31.6665 78.975 31.9151C78.4181 32.1687 77.747 32.2955 76.9615 32.2955ZM87.3049 32.2955V16.5455H90.437V18.4695H90.5787C90.7179 18.1612 90.9192 17.848 91.1827 17.5298C91.4512 17.2067 91.7992 16.9382 92.2267 16.7244C92.6593 16.5057 93.1962 16.3963 93.8375 16.3963C94.6728 16.3963 95.4434 16.6151 96.1493 17.0526C96.8553 17.4851 97.4196 18.1388 97.8422 19.0138C98.2647 19.8839 98.476 20.9751 98.476 22.2876C98.476 23.5653 98.2697 24.6442 97.8571 25.5241C97.4494 26.3991 96.8926 27.0629 96.1866 27.5153C95.4856 27.9627 94.7001 28.1864 93.8301 28.1864C93.2136 28.1864 92.6891 28.0845 92.2566 27.8807C91.829 27.6768 91.4785 27.4208 91.2051 27.1126C90.9316 26.7994 90.7228 26.4837 90.5787 26.1655H90.4817V32.2955H87.3049ZM90.4146 22.2727C90.4146 22.9538 90.5091 23.5479 90.698 24.055C90.8869 24.5621 91.1603 24.9574 91.5183 25.2408C91.8762 25.5192 92.3113 25.6584 92.8233 25.6584C93.3404 25.6584 93.7779 25.5167 94.1358 25.2333C94.4938 24.945 94.7647 24.5472 94.9487 24.0401C95.1376 23.5281 95.2321 22.9389 95.2321 22.2727C95.2321 21.6115 95.1401 21.0298 94.9561 20.5277C94.7722 20.0256 94.5012 19.6328 94.1433 19.3494C93.7853 19.0661 93.3453 18.9244 92.8233 18.9244C92.3063 18.9244 91.8688 19.0611 91.5108 19.3345C91.1578 19.608 90.8869 19.9957 90.698 20.4979C90.5091 21 90.4146 21.5916 90.4146 22.2727ZM106.687 16.5455V18.9318H99.7885V16.5455H106.687ZM101.355 13.8011H104.531V24.4801C104.531 24.7734 104.576 25.0021 104.666 25.1662C104.755 25.3253 104.879 25.4371 105.039 25.5018C105.203 25.5664 105.392 25.5987 105.605 25.5987C105.754 25.5987 105.904 25.5863 106.053 25.5614C106.202 25.5316 106.316 25.5092 106.396 25.4943L106.895 27.8583C106.736 27.908 106.513 27.9652 106.224 28.0298C105.936 28.0994 105.585 28.1417 105.173 28.1566C104.407 28.1864 103.736 28.0845 103.159 27.8509C102.588 27.6172 102.143 27.2543 101.824 26.7621C101.506 26.2699 101.35 25.6484 101.355 24.8977V13.8011ZM111.843 12.7273L114.923 17.9325H115.043L118.137 12.7273H121.784L117.123 20.3636L121.888 28H118.175L115.043 22.7873H114.923L111.791 28H108.092L112.873 20.3636L108.182 12.7273H111.843Z" fill="#1A1A1A"/>
<g clip-path="url(#clip0_2301_526)">
<path d="M15.3431 10C13.3124 10 11.3649 10.8067 9.92893 12.2426L5.24264 16.9289C3.8067 18.3649 3 20.3124 3 22.3431C3 26.5719 6.42809 30 10.6569 30C12.6876 30 14.6351 29.1933 16.0711 27.7573L19.3126 24.5158C19.3126 24.5157 19.3127 24.5159 19.3126 24.5158L28.7573 15.0711C29.4431 14.3853 30.3733 14 31.3431 14C32.9669 14 34.3435 15.0583 34.8207 16.5227L37.8015 13.542C36.4417 11.4122 34.0573 10 31.3431 10C29.3124 10 27.3649 10.8067 25.9289 12.2426L13.2427 24.9289C12.5569 25.6147 11.6267 26 10.6569 26C8.63723 26 7 24.3628 7 22.3431C7 21.3733 7.38527 20.4431 8.07107 19.7573L12.7573 15.0711C13.4431 14.3853 14.3733 14 15.3431 14C16.9669 14 18.3435 15.0583 18.8207 16.5228L21.8015 13.542C20.4417 11.4123 18.0574 10 15.3431 10Z" fill="#6154F0"/>
<path d="M13.0439 24.9289C12.3581 25.6147 11.4279 26 10.4581 26C8.83453 26 7.45807 24.942 6.98067 23.4778L4 26.4585C5.35987 28.5879 7.74407 30 10.4581 30C12.4888 30 14.4363 29.1933 15.8723 27.7573L28.5585 15.0711C29.2443 14.3853 30.1745 14 31.1443 14C33.164 14 34.8012 15.6372 34.8012 17.6569C34.8012 18.6267 34.4159 19.5569 33.7301 20.2427L29.0439 24.9289C28.3581 25.6147 27.4279 26 26.4581 26C24.8344 26 23.4579 24.9418 22.9805 23.4775L19.9999 26.4582C21.3597 28.5879 23.7439 30 26.4581 30C28.4888 30 30.4363 29.1933 31.8723 27.7573L36.5585 23.0711C37.9945 21.6351 38.8012 19.6876 38.8012 17.6569C38.8012 13.4281 35.3731 10 31.1443 10C29.1136 10 27.1661 10.8067 25.7301 12.2426L13.0439 24.9289Z" fill="#6154F0"/>
</g>
<defs>
<clipPath id="clip0_2301_526">
<rect width="36" height="20" fill="white" transform="translate(3 10)"/>
</clipPath>
</defs>
</svg>
