<svg width="24" height="24" viewBox="0 0 24 24" fill="none" xmlns="http://www.w3.org/2000/svg">
<path d="M8.77035 14.4299L10.3804 15.1499C11.4104 15.6099 12.5904 15.6099 13.6304 15.1499L15.2404 14.4299C16.6804 13.7899 18.0104 15.5299 17.0104 16.7499L13.5504 20.9799C12.7004 22.0199 11.3104 22.0199 10.4504 20.9799L7.00036 16.7499C5.99036 15.5299 7.32035 13.7899 8.77035 14.4299Z" fill="#6154F0"/>
<path d="M8.57002 11.6699C8.27002 11.8899 8.31003 12.3499 8.65003 12.5199L11 13.6899C11.55 13.9699 12.44 13.9699 12.98 13.6899L15.33 12.5199C15.66 12.3499 15.7 11.8999 15.41 11.6699L12.3 9.32992C12.12 9.19992 11.88 9.19992 11.7 9.32992L8.57002 11.6699Z" fill="#6154F0"/>
<path d="M17.8803 8.23996L13.7103 3.03996C13.6303 2.93996 13.5403 2.84996 13.4503 2.75996C13.1903 2.50996 12.8203 2.73996 12.8203 3.09996V7.39996C12.8203 7.55996 12.8903 7.70996 13.0203 7.79996L17.1703 10.92L17.3503 11.05C17.5303 11.18 17.7803 11.18 17.9303 11.02C18.6303 10.26 18.6203 9.15996 17.8803 8.23996Z" fill="#6154F0"/>
<path d="M6.1101 8.33009L10.2601 3.05009C10.3401 2.95009 10.4201 2.86009 10.5101 2.77009C10.7701 2.52009 11.1401 2.74009 11.1401 3.11009V7.48009C11.1401 7.64009 11.0701 7.78009 10.9401 7.88009L6.8101 11.0501L6.6401 11.1801C6.4601 11.3101 6.2101 11.3101 6.0501 11.1401C5.3701 10.3701 5.3801 9.27009 6.1101 8.33009Z" fill="#6154F0"/>
</svg>
